Language: English
IMDb:http://www.imdb.com/title/tt0435761/
Source Video:ELEKTRI4KA.Thanks
Source Audio:Lu.Thanks
Encoder: Tony2
..............................................
General
Complete name : Toy Story 3.2010.CAM.H264.FEEL-FREE
Format : MPEG-4
Format profile : Base Media
Codec ID : isom
File size : 1.08 GiB
Duration : 1h 34mn
Overall bit rate : 1 643 Kbps
...............................................
Video
ID : 2
Format : AVC
Format/Info : Advanced Video Codec
Format profile : Baseline@L1.3
Format settings, CABAC : No
Format settings, ReFrames : 1 frame
Codec ID : avc1
Codec ID/Info : Advanced Video Coding
Duration : 1h 34mn
Bit rate mode : Variable
Bit rate : 1 511 Kbps
Width : 656 pixels
Height : 368 pixels
Display aspect ratio : 16:9
Frame rate mode : Constant
Frame rate : 25.000 fps
Resolution : 24 bits
Colorimetry : 4:2:0
Scan type : Progressive
Bits/(Pixel*Frame) : 0.250
Stream size : 1 017 MiB (92%)
Language : English
...............................................
Audio
ID : 1
Format : AAC
Format/Info : Advanced Audio Codec
Format version : Version 4
Format profile : LC
Format settings, SBR : No
Codec ID : 40
Duration : 1h 34mn
Bit rate mode : Constant
Bit rate : 128 Kbps
Channel(s) : 2 channels
Channel positions : L R
Sampling rate : 44.1 KHz
Resolution : 16 bits
Stream size : 86.1 MiB (8%)
Language : English
................................................
Plot: 
Woody, Buzz, and the rest of their toy-box friends are dumped in a day-care center after their owner, Andy, departs for college.
...................................................
Screenshots: 
http://postimg.com/image/17000/16637.jpg 
http://postimg.com/image/17000/16638.jpg 
http://postimg.com/image/17000/16639.jpg
......................................................
......................................................